<svg xmlns="http://www.w3.org/2000/svg" width="185" height="241" viewBox="0 0 185 241">
  <defs>
    <style>
      .cls-1 {
        fill: #fff;
        fill-rule: evenodd;
        opacity: 0.12;
      }
    </style>
  </defs>
  <path id="Composite_Path" data-name="Composite Path" class="cls-1" d="M1039.29,3118.97c-2.76-1.17-7.46-7.41-7.46-7.41,3.12-.39,19.66-1.89,22.62-3.79C1052.48,3110.2,1042.04,3120.14,1039.29,3118.97ZM1008.71,3320h105.12c23.05-37.87,28.15-86.28,10.41-129.36,23.84,40.56,25.9,87.79,10.89,129.36H1142a2.791,2.791,0,0,0,3-2.53V3084.66a148.9,148.9,0,0,0-128.64,23.11c-1.71-.16-3.44-0.25-5.19-0.25A54.223,54.223,0,0,0,960,3143.38a91.923,91.923,0,0,1,25.089-4.33c1.039-.04,2.076-0.08,3.122-0.08a91.649,91.649,0,0,1,74.7,38.36,89.284,89.284,0,0,1,16.68,52.05c0,43.36-30.86,79.57-72.04,88.35C1007.93,3318.49,1008.32,3319.25,1008.71,3320Z" transform="translate(-960 -3079)"/>
</svg>
