<svg xmlns="http://www.w3.org/2000/svg" xmlns:xlink="http://www.w3.org/1999/xlink" viewBox="0 0 209.12 230.66"><defs><style>.cls-1,.cls-2,.cls-3,.cls-4,.cls-5{fill-rule:evenodd;}.cls-1{fill:url(#Безымянный_градиент_12);}.cls-2{fill:url(#Безымянный_градиент_19);}.cls-3{fill:url(#Безымянный_градиент_28);}.cls-4{opacity:0.15;fill:url(#linear-gradient);}.cls-5{fill:#ecf955;opacity:0.3;}</style><linearGradient id="Безымянный_градиент_12" x1="71.22" y1="203.39" x2="75.79" y2="-17.01" gradientUnits="userSpaceOnUse"><stop offset="0" stop-color="#c1472b"/><stop offset="1" stop-color="#ffad08"/></linearGradient><linearGradient id="Безымянный_градиент_19" x1="144.96" y1="126.08" x2="61.56" y2="-17.47" gradientUnits="userSpaceOnUse"><stop offset="0.01" stop-color="#e9a90c"/><stop offset="1" stop-color="#f9d92e"/></linearGradient><linearGradient id="Безымянный_градиент_28" x1="262.09" y1="157.44" x2="4.52" y2="205.69" gradientUnits="userSpaceOnUse"><stop offset="0" stop-color="#aea7a6"/><stop offset="1" stop-color="#9c574b"/></linearGradient><linearGradient id="linear-gradient" x1="13.81" y1="205.66" x2="215.62" y2="121.54" gradientUnits="userSpaceOnUse"><stop offset="0" stop-color="#dcc6e0"/><stop offset="1" stop-color="#b6ffff"/></linearGradient></defs><title>logo</title><g id="Icon"><path class="cls-1" d="M115.33,45.82a69.06,69.06,0,0,1,29.48,6.55C103.63,12.84,32.69,16.5,7.88,73.35a115.76,115.76,0,0,0,0,84c24.93,56.67,90.84,65.23,136.93,21A69.52,69.52,0,1,1,115.33,45.82Z"/><path class="cls-2" d="M194.44,31.42A115.35,115.35,0,0,0,7.88,73.35c21.68-48,87.86-60.15,121.19-21.08,23.59,27.66.91,33.83,1.07,52.36a13,13,0,0,0,13,13,12.84,12.84,0,0,0,13-13c-.26-10.79-8.57-18.19-9.2-29C146,61.52,152.75,55,162.29,54.85c5.34-.08,17.84,4.7,14.63,14.31-1.45,4.33-3.75,6.74-3.75,10.28a6.57,6.57,0,1,0,13.14,0c0-4.26-3.44-6.42-4.86-12.69-.93-4.11.3-7.11,2.52-7.58,6.86-1.44,14,6.37,17.86,6.13C211.38,64.71,206.9,42.7,194.44,31.42Z"/><path class="cls-3" d="M189.7,142.28c-24.47-7.55-42,9-55.63,29.49C102.85,218.64,30.7,207.89,7.88,157.31a115.36,115.36,0,0,0,189.6,39C220.74,170.32,204.37,146.8,189.7,142.28Z"/><path class="cls-4" d="M189.7,142.28c-24.47-7.55-42,9-55.63,29.49C102.85,218.64,30.7,207.89,7.88,157.31a115.6,115.6,0,0,0,30.4,43.84c31.75,23.63,78,23.2,100.89-10.69,13.32-19.76,30.62-35.44,55.22-26.64a30.74,30.74,0,0,1,14.24,11.46C211.65,158.57,200.23,145.53,189.7,142.28Z"/><path class="cls-5" d="M133.41,96.37c0-.22,0-.44,0-.66a22.63,22.63,0,0,0-1.81,8.91,11.52,11.52,0,0,0,11.48,11.5,11.64,11.64,0,0,0,9.34-4.7,15.49,15.49,0,0,1-19-15Z"/><path class="cls-5" d="M175.28,76.48a10.34,10.34,0,0,0-.36,1.07,7.07,7.07,0,0,0-.27,1.89,5.09,5.09,0,0,0,9.63,2.31l-.65,0A9.24,9.24,0,0,1,175.28,76.48Z"/></g></svg>